<?xml version="1.0" encoding="UTF-8"?>
<svg id="Layer_1" data-name="Layer 1" xmlns="http://www.w3.org/2000/svg" width="1920" height="1080" viewBox="0 0 1920 1080">
  <defs>
    <style>
      .cls-1 {
        stroke: #4472ca;
      }

      .cls-1, .cls-2 {
        stroke-width: 15px;
      }

      .cls-1, .cls-2, .cls-3 {
        fill: none;
        stroke-miterlimit: 10;
      }

      .cls-2 {
        stroke: #0a369d;
      }

      .cls-4 {
        fill: #f5e6e8;
      }

      .cls-5 {
        fill: #fc814a;
      }

      .cls-6 {
        fill: #0a369d;
      }

      .cls-7 {
        fill: #4472ca;
      }

      .cls-3 {
        stroke: #fc814a;
        stroke-width: 20px;
      }
    </style>
  </defs>
  <rect class="cls-4" x="0" y="0" width="1920" height="1080"/>
  <g id="circle1">
    <circle id="Ellipse_1" data-name="Ellipse 1" class="cls-3" cx="1874.73" cy="43.57" r="92.03"/>
    <circle id="Ellipse_2" data-name="Ellipse 2" class="cls-1" cx="1874.73" cy="43.57" r="72.33"/>
    <circle id="Ellipse_3" data-name="Ellipse 3" class="cls-2" cx="1874.73" cy="43.57" r="49.94"/>
    <circle id="Ellipse_4" data-name="Ellipse 4" class="cls-5" cx="1874.73" cy="43.57" r="18.39"/>
  </g>
  <g id="circle2">
    <circle id="Ellipse_5" data-name="Ellipse 5" class="cls-2" cx="46.91" cy="1034.41" r="86.52"/>
    <circle id="Ellipse_6" data-name="Ellipse 6" class="cls-1" cx="46.91" cy="1034.41" r="68"/>
    <circle id="Ellipse_7" data-name="Ellipse 7" class="cls-2" cx="46.91" cy="1034.41" r="46.95"/>
    <circle id="Ellipse_8" data-name="Ellipse 8" class="cls-7" cx="46.91" cy="1034.41" r="21.49"/>
  </g>
  <path id="Path_1" data-name="Path 1" class="cls-7" d="M1911.2,1106.47h-535.83c-1.81,0-3.61-.07-5.41-.24-23.05-2.22-33.05-12.28-36.29-16.03-17.24-19.96-14.69-59.55,11.54-97.52,8.26-11.98,20.5-20.64,34.54-24.46l17.6-4.77c15.73-4.34,29.1-14.75,37.14-28.95,2.62-4.58,5.72-8.87,9.25-12.79,16.28-18.05,38.15-24.21,56.08-25.83,19.69-1.8,37.33-12.91,47.47-29.88,9.67-16.38,21.95-31.06,36.37-43.47,101.99-87.2,301.32-45.01,366.82,58.39,5.7,9.03,10.2,18.75,13.41,28.93,1.9,6,2.86,12.25,2.85,18.54v122.5c-.05,3.56-.76,26.33-19.62,42.37-10.09,8.42-22.79,13.08-35.94,13.19Z"/>
  <path id="Path_2" data-name="Path 2" class="cls-6" d="M-47.07-32.48H492.8c1.82,0,3.64,.07,5.45,.24,23.23,2.24,33.3,12.38,36.56,16.16,17.38,20.11,14.8,60-11.62,98.25-8.32,12.07-20.65,20.8-34.8,24.64l-17.73,4.8c-15.85,4.37-29.32,14.86-37.42,29.17-2.64,4.62-5.77,8.94-9.32,12.89-16.4,18.19-38.44,24.39-56.51,26.02-19.84,1.82-37.61,13.01-47.83,30.1-9.74,16.5-22.12,31.3-36.64,43.79-102.76,87.85-303.59,45.35-369.59-58.83-5.74-9.1-10.29-18.89-13.52-29.15-1.92-6.04-2.89-12.34-2.88-18.68V23.5c.05-3.59,.76-26.53,19.77-42.69,10.17-8.48,22.96-13.18,36.2-13.29Z"/>
</svg>